<svg width="354" height="343" viewBox="0 0 354 343" fill="none" xmlns="http://www.w3.org/2000/svg">
<path d="M50.0262 145.823C68.5372 76.7387 139.547 35.7413 208.631 54.2523C277.715 72.7633 318.712 143.773 300.201 212.857C281.69 281.941 210.68 322.938 141.597 304.427C72.5127 285.916 31.5152 214.906 50.0262 145.823Z" stroke="black" stroke-opacity="0.05"/>
<path d="M39.6514 140.477L40.6739 137.504L46.9832 139.673L49.5902 132.093L43.2808 129.923L44.3033 126.95L60.5986 132.554L59.5761 135.527L52.8129 133.201L50.206 140.782L56.9692 143.108L55.9467 146.081L39.6514 140.477Z" fill="#494454"/>
<path d="M61.2245 120.959C60.967 120.975 60.671 121.141 60.3365 121.458C59.9877 121.767 59.6895 122.173 59.4419 122.676C59.0882 123.393 58.9378 123.988 58.9906 124.46C59.0434 124.932 59.2563 125.26 59.6295 125.444C60.0026 125.628 60.3924 125.597 60.7989 125.351C61.1981 125.084 61.5674 124.606 61.9069 123.917C62.1545 123.415 62.2877 122.928 62.3064 122.455C62.3108 121.976 62.2157 121.608 62.021 121.351L61.2245 120.959ZM52.6163 124.69C52.3996 124.333 52.2435 123.944 52.1481 123.522C52.0597 123.086 52.0286 122.643 52.0546 122.192C52.0663 121.734 52.1316 121.276 52.2507 120.817C52.3767 120.344 52.5459 119.892 52.7581 119.462C53.1188 118.73 53.5446 118.119 54.0356 117.63C54.5336 117.126 55.0752 116.751 55.6606 116.504C56.2459 116.258 56.875 116.157 57.5479 116.204C58.2135 116.228 58.8979 116.414 59.6012 116.761L66.5545 120.188L65.2495 122.836L64.2808 122.358C64.5626 122.836 64.6697 123.415 64.602 124.095C64.5344 124.775 64.352 125.417 64.0549 126.019C63.7649 126.608 63.4136 127.104 63.0008 127.507C62.5881 127.91 62.1391 128.224 61.6538 128.448C61.1613 128.651 60.643 128.744 60.0991 128.725C59.5408 128.7 58.9818 128.549 58.4221 128.274C57.8337 127.984 57.3736 127.614 57.0419 127.165C56.7029 126.695 56.4817 126.184 56.3784 125.634C56.2607 125.077 56.2502 124.501 56.347 123.906C56.4509 123.297 56.6407 122.713 56.9166 122.153C57.2702 121.436 57.6428 120.897 58.0343 120.537C58.4185 120.156 58.7428 119.932 59.0072 119.866L58.7058 119.717C58.06 119.399 57.4372 119.36 56.8375 119.599C56.2449 119.825 55.747 120.346 55.3438 121.164C54.9972 121.867 54.8188 122.573 54.8086 123.282C54.8054 123.976 54.9306 124.591 55.1841 125.126L52.6163 124.69Z" fill="#494454"/>
<path d="M57.4968 111.031L59.1367 108.461L61.4632 109.946C62.151 110.385 62.7312 110.547 63.2038 110.431C63.6851 110.301 64.1194 109.933 64.5067 109.326C64.7047 109.016 64.8499 108.729 64.9423 108.465C65.0212 108.193 65.0755 107.915 65.1054 107.63L61.2413 105.164L62.8812 102.594L73.2999 109.244L71.6601 111.813L67.8365 109.373C67.7809 109.698 67.6791 110.051 67.5314 110.431C67.3701 110.803 67.1518 111.204 66.8763 111.636C66.5492 112.148 66.1676 112.598 65.7314 112.983C65.3039 113.356 64.8298 113.623 64.3093 113.784C63.7753 113.937 63.2077 113.964 62.6065 113.865C61.9919 113.757 61.3406 113.484 60.6528 113.045L57.4968 111.031Z" fill="#494454"/>
<path d="M67.8288 95.874L71.232 98.6504L74.6607 94.4476L71.2576 91.6712L73.1844 89.3095L82.7615 97.1228L80.8347 99.4846L77.1712 96.4958L73.7425 100.699L77.406 103.687L75.4792 106.049L65.902 98.2357L67.8288 95.874Z" fill="#494454"/>
<path d="M78.808 83.4328L83.9405 88.7858L82.8444 79.5627L85.0445 77.4532L93.5987 86.3748L91.4332 88.4511L86.3007 83.0981L87.3968 92.3212L85.1967 94.4307L76.6425 85.5091L78.808 83.4328Z" fill="#494454"/>
<path d="M102.591 76.0113C103.089 75.6626 103.414 75.3178 103.566 74.977C103.709 74.6231 103.698 74.3281 103.533 74.0922C103.358 73.8432 103.109 73.7246 102.786 73.7364C102.466 73.726 102.109 73.8584 101.716 74.1337L100.242 75.1661L98.5622 72.7676L99.6828 71.983C100.024 71.7444 100.275 71.4901 100.438 71.22C100.604 70.9277 100.586 70.6374 100.385 70.349C100.229 70.1262 99.9821 70.0253 99.6452 70.0463C99.3083 70.0674 98.9499 70.2109 98.5698 70.4771C98.1504 70.7707 97.7401 71.1751 97.3391 71.6903C96.9512 72.1963 96.6852 72.7928 96.5411 73.4796L94.5472 71.8873C94.5366 71.2306 94.7292 70.5293 95.125 69.7834C95.5339 69.0284 96.1315 68.3755 96.9179 67.8249C98.0713 67.0173 99.1638 66.6528 100.195 66.7313C101.218 66.7968 102.059 67.3013 102.72 68.245C103.041 68.7037 103.221 69.1834 103.259 69.6841C103.297 70.1848 103.236 70.6279 103.076 71.0133C103.691 70.9149 104.256 70.9686 104.771 71.1743C105.299 71.3709 105.775 71.7706 106.197 72.3735C106.555 72.8847 106.764 73.4214 106.826 73.9837C106.879 74.5329 106.816 75.0848 106.638 75.6392C106.45 76.1806 106.151 76.7023 105.741 77.2044C105.353 77.7104 104.871 78.1653 104.294 78.5691C103.521 79.1105 102.688 79.4691 101.795 79.6449C100.894 79.8075 100.033 79.7362 99.2138 79.4309L98.4703 76.9044C99.0116 77.0918 99.6428 77.1284 100.364 77.0143C101.089 76.8779 101.831 76.5436 102.591 76.0113Z" fill="#494454"/>
<path d="M114.224 66.7983C114.002 66.6659 113.664 66.636 113.209 66.7084C112.747 66.767 112.271 66.9336 111.783 67.2083C111.086 67.6007 110.626 68.0066 110.403 68.4259C110.18 68.8452 110.171 69.2361 110.375 69.5986C110.579 69.9611 110.918 70.1558 111.392 70.1827C111.872 70.1877 112.447 70.0019 113.116 69.6252C113.604 69.3505 113.989 69.0235 114.272 68.6443C114.546 68.2511 114.675 67.8938 114.66 67.5722L114.224 66.7983ZM105.013 65.0153C105.036 64.5987 105.126 64.1895 105.286 63.7876C105.459 63.3779 105.684 62.9944 105.96 62.6369C106.228 62.2656 106.541 61.9242 106.898 61.613C107.27 61.2939 107.664 61.0166 108.083 60.7811C108.794 60.3809 109.49 60.1174 110.172 59.9908C110.867 59.8564 111.526 59.8527 112.148 59.9798C112.771 60.1068 113.346 60.3794 113.876 60.7976C114.411 61.194 114.871 61.7338 115.255 62.417L119.058 69.1723L116.486 70.6204L115.956 69.6792C115.918 70.2327 115.68 70.771 115.24 71.294C114.8 71.8171 114.287 72.2435 113.701 72.5731C113.13 72.8949 112.56 73.1056 111.992 73.2051C111.423 73.3046 110.876 73.31 110.348 73.2213C109.827 73.1108 109.347 72.8943 108.909 72.572C108.462 72.2357 108.086 71.7957 107.78 71.2519C107.458 70.6802 107.287 70.1155 107.267 69.5577C107.253 68.9781 107.359 68.432 107.584 67.9195C107.802 67.393 108.119 66.9118 108.534 66.4759C108.964 66.0321 109.45 65.6572 109.994 65.3511C110.691 64.9587 111.303 64.7244 111.829 64.6485C112.362 64.5507 112.756 64.5492 113.011 64.6442L112.847 64.3514C112.493 63.7239 112.002 63.3397 111.371 63.1987C110.755 63.0499 110.05 63.1991 109.255 63.6465C108.572 64.0311 108.026 64.5128 107.617 65.0917C107.223 65.6627 106.979 66.2406 106.886 66.8254L105.013 65.0153Z" fill="#494454"/>
<path d="M130.02 54.7525C130.653 55.3546 131.155 56.0985 131.526 56.9841C131.896 57.8697 132.074 58.7494 132.058 59.6233C132.056 60.491 131.901 61.3017 131.592 62.0554C131.283 62.8091 130.844 63.4787 130.273 64.0641C129.703 64.6496 129.042 65.0998 128.289 65.4148C127.448 65.7668 126.666 65.9292 125.943 65.902C125.229 65.8538 124.687 65.6559 124.316 65.3081L126.789 71.2195L123.978 72.396L117.234 56.2781L119.957 55.1386L120.457 56.3342C120.47 55.8259 120.72 55.3049 121.208 54.7712C121.704 54.2166 122.373 53.7633 123.214 53.4113C123.982 53.0901 124.774 52.932 125.592 52.937C126.417 52.921 127.207 53.0675 127.961 53.3765C128.715 53.6855 129.401 54.1442 130.02 54.7525ZM128.967 59.5116C128.969 59.0599 128.877 58.6127 128.692 58.1699C128.506 57.7271 128.255 57.3551 127.939 57.0541C127.622 56.753 127.26 56.5314 126.854 56.3892C126.462 56.2409 126.029 56.1794 125.554 56.2047C125.094 56.2239 124.62 56.3353 124.133 56.5391C123.425 56.8356 122.859 57.2457 122.436 57.7694C122.008 58.2783 121.794 58.7839 121.796 59.286L123.065 62.3192C123.422 62.6731 123.934 62.8834 124.604 62.9501C125.268 63.0021 125.954 62.8798 126.662 62.5834C127.149 62.3796 127.561 62.1205 127.898 61.8061C128.249 61.4856 128.51 61.1338 128.679 60.7508C128.863 60.3616 128.959 59.9486 128.967 59.5116Z" fill="#494454"/>
<path d="M141.635 55.8166C141.45 55.6372 141.128 55.531 140.668 55.4979C140.204 55.4494 139.703 55.5033 139.166 55.6596C138.397 55.8829 137.857 56.1732 137.544 56.5307C137.232 56.8881 137.133 57.2666 137.249 57.6661C137.365 58.0655 137.651 58.3324 138.107 58.4666C138.573 58.581 139.175 58.531 139.913 58.3167C140.45 58.1604 140.9 57.9298 141.261 57.6249C141.618 57.3046 141.825 56.986 141.883 56.6693L141.635 55.8166ZM133.073 51.9817C133.19 51.5812 133.372 51.2034 133.619 50.8485C133.881 50.489 134.187 50.1668 134.537 49.8817C134.883 49.5812 135.265 49.3201 135.684 49.0985C136.118 48.8723 136.566 48.6923 137.027 48.5583C137.81 48.3306 138.548 48.2328 139.241 48.2648C139.949 48.2924 140.591 48.4389 141.168 48.7044C141.745 48.97 142.244 49.3666 142.664 49.8944C143.094 50.4023 143.419 51.0327 143.638 51.7856L145.801 59.2296L142.967 60.0534L142.665 59.0163C142.503 59.5467 142.148 60.0164 141.6 60.4255C141.053 60.8346 140.456 61.1329 139.811 61.3204C139.181 61.5035 138.578 61.5787 138.002 61.5462C137.426 61.5136 136.891 61.394 136.398 61.1875C135.916 60.9611 135.498 60.641 135.144 60.2272C134.786 59.7981 134.52 59.2839 134.346 58.6847C134.163 58.0547 134.125 57.4659 134.233 56.9182C134.351 56.3506 134.578 55.843 134.915 55.3953C135.247 54.9323 135.665 54.5359 136.169 54.2061C136.688 53.8719 137.248 53.6177 137.847 53.4436C138.615 53.2204 139.264 53.1317 139.794 53.1777C140.335 53.2038 140.719 53.2922 140.946 53.4428L140.852 53.1201C140.651 52.4287 140.26 51.9426 139.678 51.6617C139.112 51.3764 138.391 51.3609 137.515 51.6154C136.763 51.8342 136.121 52.1789 135.591 52.6494C135.077 53.1155 134.708 53.6226 134.484 54.1709L133.073 51.9817Z" fill="#494454"/>
<path d="M157.636 41.595C157.417 41.9394 157.121 42.2562 156.747 42.5453C156.371 42.8186 155.966 43.0642 155.531 43.2822C155.097 43.5003 154.659 43.6946 154.217 43.8653C153.788 44.0175 153.405 44.154 153.069 44.2748C152.303 44.5478 151.695 44.8433 151.245 45.1613C150.808 45.4608 150.479 45.7749 150.258 46.1036C150.05 46.4138 149.934 46.7412 149.91 47.0858C149.884 47.4146 149.898 47.7447 149.953 48.0762C150.198 47.5976 150.627 47.1534 151.24 46.7434C151.866 46.3151 152.606 46.0303 153.458 45.8888C154.279 45.7526 155.068 45.7676 155.825 45.9339C156.583 46.1001 157.264 46.3926 157.869 46.8112C158.473 47.2299 158.977 47.7708 159.379 48.4339C159.794 49.0787 160.071 49.8193 160.21 50.6559C160.351 51.5082 160.325 52.3315 160.133 53.1257C159.94 53.92 159.614 54.6392 159.153 55.2833C158.708 55.9248 158.133 56.4662 157.427 56.9076C156.722 57.3491 155.936 57.6418 155.067 57.7859C154.073 57.9509 153.146 57.9344 152.286 57.7366C151.426 57.5387 150.657 57.1554 149.978 56.5868C149.3 56.0181 148.722 55.2707 148.244 54.3445C147.779 53.3998 147.438 52.2725 147.221 50.9624C147.055 49.968 146.977 49.0079 146.986 48.082C147.01 47.1535 147.175 46.2908 147.481 45.494C147.784 44.6814 148.263 43.9532 148.919 43.3092C149.571 42.6494 150.453 42.0976 151.563 41.6539C152.4 41.3204 153.214 40.9988 154.006 40.6889C154.796 40.3633 155.542 39.9232 156.244 39.3687L157.636 41.595ZM154.466 54.6014C155.381 54.4494 156.108 54.0856 156.645 53.51C157.179 52.9185 157.376 52.1966 157.234 51.3442C157.166 50.9339 157.018 50.5773 156.789 50.2747C156.576 49.9694 156.3 49.7233 155.961 49.5363C155.638 49.3467 155.268 49.2215 154.853 49.1607C154.434 49.0841 154.004 49.0825 153.562 49.1558C153.215 49.2134 152.876 49.3184 152.544 49.4708C152.21 49.6073 151.899 49.7886 151.613 50.0146C151.342 50.238 151.11 50.5035 150.918 50.8111C150.723 51.1029 150.583 51.4343 150.499 51.8051C150.606 52.3549 150.79 52.8272 151.05 53.222C151.308 53.6009 151.61 53.9076 151.957 54.1419C152.32 54.3736 152.71 54.5278 153.128 54.6044C153.562 54.6783 154.008 54.6773 154.466 54.6014Z" fill="#494454"/>
<path d="M170.822 51.423C170.683 51.2054 170.394 51.0271 169.955 50.8881C169.515 50.7332 169.015 50.6692 168.456 50.6962C167.657 50.7348 167.064 50.8916 166.677 51.1666C166.289 51.4416 166.106 51.7868 166.126 52.2023C166.146 52.6178 166.362 52.9438 166.774 53.1802C167.201 53.3999 167.798 53.4912 168.565 53.4541C169.124 53.4271 169.615 53.3073 170.037 53.0947C170.459 52.8661 170.735 52.6045 170.865 52.3099L170.822 51.423ZM163.385 45.7029C163.592 45.3405 163.857 45.0154 164.179 44.7275C164.518 44.4388 164.89 44.1966 165.297 44.0007C165.704 43.7889 166.136 43.6238 166.595 43.5056C167.07 43.3865 167.547 43.3154 168.026 43.2923C168.841 43.253 169.582 43.3293 170.248 43.5214C170.93 43.7128 171.521 44.0046 172.02 44.397C172.52 44.7893 172.912 45.291 173.198 45.9019C173.499 46.4961 173.669 47.1847 173.706 47.9678L174.08 55.7108L171.132 55.8532L171.08 54.7744C170.798 55.2525 170.344 55.6269 169.716 55.8975C169.089 56.1681 168.439 56.3196 167.768 56.352C167.113 56.3836 166.509 56.3166 165.956 56.1511C165.403 55.9856 164.911 55.745 164.48 55.4295C164.063 55.0972 163.731 54.6887 163.483 54.2041C163.235 53.7035 163.096 53.1415 163.065 52.5183C163.034 51.863 163.134 51.2815 163.366 50.7738C163.613 50.2492 163.952 49.8084 164.383 49.4512C164.814 49.078 165.312 48.7896 165.879 48.586C166.462 48.3817 167.065 48.2644 167.688 48.2344C168.487 48.1958 169.139 48.2604 169.644 48.4283C170.164 48.5794 170.517 48.7546 170.702 48.9538L170.686 48.6182C170.652 47.8991 170.384 47.3353 169.884 46.927C169.4 46.5178 168.702 46.3353 167.791 46.3792C167.008 46.4171 166.304 46.6032 165.679 46.9377C165.071 47.2715 164.594 47.6789 164.249 48.1601L163.385 45.7029Z" fill="#494454"/>
<path d="M187.433 47.1463L183.622 46.954L183.162 56.0625L180.118 55.9088L180.578 46.8004L176.766 46.6081L176.93 43.3722L187.596 43.9105L187.433 47.1463Z" fill="#494454"/>
<path d="M193.731 44.6838L193.157 48.0431L194.979 48.3544C195.657 48.4703 196.262 48.6792 196.795 48.9813C197.328 49.2833 197.767 49.6586 198.112 50.1072C198.458 50.5558 198.701 51.0763 198.844 51.6688C198.986 52.2612 198.999 52.8965 198.883 53.5746C198.765 54.2686 198.54 54.8713 198.209 55.3829C197.881 55.8787 197.471 56.2795 196.981 56.5852C196.49 56.891 195.944 57.0979 195.341 57.2059C194.741 57.2981 194.11 57.2876 193.447 57.1744L188.645 56.3538L190.727 44.1704L193.731 44.6838ZM194.154 54.1787C194.627 54.2595 195.021 54.1888 195.334 53.9665C195.664 53.7469 195.864 53.4321 195.934 53.022C196.007 52.5962 195.914 52.2394 195.654 51.9516C195.411 51.6665 195.068 51.4862 194.627 51.4108L192.64 51.0712L192.167 53.8391L194.154 54.1787ZM202.058 46.1068L205.063 46.6202L202.981 58.8036L199.976 58.2902L202.058 46.1068Z" fill="#494454"/>
<path d="M215.139 49.5078C215.736 49.6902 216.273 49.9297 216.752 50.2264C217.23 50.523 217.616 50.8752 217.909 51.2828C218.208 51.6751 218.399 52.1182 218.482 52.6121C218.585 53.0954 218.55 53.6201 218.377 54.1863C218.228 54.6759 218.027 55.058 217.776 55.3326C217.545 55.5966 217.242 55.8219 216.867 56.0085C217.222 56.4348 217.469 56.9119 217.609 57.4398C217.769 57.9571 217.746 58.5523 217.54 59.2256C217.363 59.8071 217.084 60.2823 216.703 60.6512C216.338 61.0248 215.91 61.3039 215.419 61.4884C214.927 61.6728 214.388 61.7674 213.801 61.7721C213.234 61.7662 212.66 61.6744 212.078 61.4967L206.983 59.9398L210.595 48.1193L215.139 49.5078ZM212.567 51.6832L211.957 53.6801L214.023 54.3113C214.375 54.4188 214.681 54.4035 214.94 54.2654C215.2 54.1272 215.37 53.9281 215.449 53.668C215.533 53.3925 215.506 53.125 215.368 52.8653C215.23 52.6056 214.977 52.4196 214.61 52.3074L212.567 51.6832ZM211.235 56.0442L210.611 58.087L213.296 58.9075C213.633 59.0104 213.929 59.0004 214.184 58.8775C214.443 58.7394 214.62 58.5173 214.713 58.2113C214.793 57.9512 214.764 57.6912 214.625 57.4315C214.492 57.1565 214.249 56.9653 213.897 56.8577L211.235 56.0442Z" fill="#494454"/>
<path d="M226.894 62.311C226.863 62.0548 226.68 61.7688 226.345 61.4531C226.016 61.1226 225.593 60.8482 225.078 60.6299C224.341 60.318 223.739 60.2019 223.27 60.2817C222.802 60.3615 222.487 60.593 222.325 60.9761C222.163 61.3592 222.216 61.7465 222.484 62.1382C222.774 62.5214 223.272 62.8627 223.98 63.1621C224.495 63.3804 224.989 63.4854 225.462 63.477C225.941 63.4539 226.303 63.3378 226.548 63.1287L226.894 62.311ZM222.675 53.9312C223.019 53.6944 223.398 53.5162 223.814 53.3967C224.244 53.2835 224.685 53.2269 225.136 53.227C225.594 53.2124 226.056 53.2513 226.52 53.3438C227 53.4425 227.461 53.5855 227.903 53.7726C228.654 54.0907 229.288 54.4808 229.805 54.9428C230.336 55.4111 230.742 55.9303 231.022 56.5005C231.302 57.0707 231.438 57.6931 231.43 58.3675C231.444 59.0334 231.298 59.7274 230.992 60.4493L227.97 67.588L225.251 66.4371L225.672 65.4426C225.212 65.7513 224.64 65.8915 223.957 65.863C223.274 65.8345 222.623 65.6892 222.004 65.4272C221.4 65.1715 220.885 64.8492 220.459 64.4603C220.033 64.0714 219.694 63.6412 219.442 63.1696C219.21 62.6895 219.088 62.1774 219.076 61.6333C219.069 61.0745 219.187 60.5078 219.43 59.9331C219.686 59.329 220.029 58.8485 220.458 58.4916C220.908 58.1261 221.405 57.876 221.948 57.7413C222.498 57.5918 223.072 57.5483 223.671 57.6107C224.285 57.6795 224.879 57.8355 225.454 58.0787C226.191 58.3906 226.75 58.7317 227.132 59.1018C227.535 59.4635 227.777 59.7744 227.858 60.0346L227.989 59.7252C228.269 59.0621 228.273 58.4382 227.999 57.8532C227.74 57.2745 227.191 56.8074 226.351 56.4518C225.629 56.1462 224.914 56.0086 224.206 56.039C223.513 56.0757 222.907 56.2359 222.387 56.5197L222.675 53.9312Z" fill="#494454"/>
<path d="M243.716 65.6628L240.367 63.8339L235.996 71.8381L233.32 70.3772L237.692 62.373L234.342 60.544L235.895 57.7004L245.269 62.8192L243.716 65.6628Z" fill="#494454"/>
<path d="M250.332 66.1483L248.412 68.9645L249.939 70.0052C250.508 70.3927 250.972 70.8345 251.33 71.3308C251.689 71.8271 251.932 72.351 252.06 72.9026C252.187 73.4542 252.193 74.0289 252.076 74.6269C251.959 75.2248 251.706 75.808 251.319 76.3765C250.922 76.9582 250.467 77.4129 249.954 77.7405C249.449 78.0549 248.91 78.2491 248.337 78.3231C247.763 78.3971 247.18 78.3579 246.587 78.2054C246.003 78.0396 245.433 77.7675 244.878 77.3891L240.852 74.6453L247.813 64.4317L250.332 66.1483ZM246.767 74.9587C247.163 75.229 247.551 75.3284 247.929 75.2568C248.32 75.1942 248.633 74.9911 248.867 74.6473C249.11 74.2903 249.174 73.9271 249.058 73.5576C248.955 73.197 248.718 72.8906 248.348 72.6383L246.682 71.503L245.101 73.8233L246.767 74.9587Z" fill="#494454"/>
<path d="M267.237 79.4484C267.697 79.8709 268.078 80.3192 268.381 80.7935C268.683 81.2678 268.879 81.7522 268.968 82.2468C269.067 82.7295 269.048 83.2116 268.909 83.693C268.793 84.1734 268.535 84.6314 268.134 85.0671C267.787 85.4439 267.442 85.7018 267.096 85.8408C266.774 85.9788 266.403 86.0509 265.984 86.057C266.12 86.5949 266.137 87.132 266.035 87.6685C265.955 88.204 265.677 88.7308 265.2 89.249C264.789 89.6964 264.331 90.0042 263.829 90.1724C263.338 90.3514 262.831 90.4178 262.309 90.3717C261.786 90.3255 261.259 90.1777 260.727 89.9281C260.219 89.6775 259.741 89.3464 259.293 88.9348L255.372 85.3276L263.74 76.2312L267.237 79.4484ZM263.978 80.2977L262.564 81.8344L264.154 83.2968C264.425 83.5459 264.707 83.6644 265.001 83.6521C265.295 83.6399 265.534 83.5336 265.718 83.3335C265.913 83.1215 266.004 82.8686 265.992 82.5747C265.98 82.2808 265.832 82.0038 265.55 81.7439L263.978 80.2977ZM260.89 83.6537L259.444 85.2257L261.511 87.1268C261.77 87.3651 262.041 87.484 262.324 87.4835C262.618 87.4713 262.873 87.3474 263.09 87.1119C263.274 86.9117 263.36 86.6647 263.348 86.3708C263.346 86.0651 263.21 85.7877 262.939 85.5385L260.89 83.6537Z" fill="#494454"/>
<path d="M280.851 93.9388L282.766 96.1858L274.619 105.682L272.657 103.38L276.926 98.3241L270.089 100.366L268.501 98.5024L271.602 92.0765L265.918 95.47L263.91 93.1134L274.563 86.5586L276.337 88.6411L272.584 96.411L280.851 93.9388Z" fill="#494454"/>
<path d="M281.317 111.1C281.734 111.744 282.248 112.288 282.859 112.731C283.484 113.166 284.086 113.405 284.667 113.448L283.201 115.512C282.455 115.537 281.67 115.312 280.847 114.834C280.032 114.371 279.312 113.655 278.686 112.688C278.173 111.896 277.822 111.074 277.634 110.224C277.455 109.388 277.439 108.568 277.587 107.767C277.736 106.966 278.055 106.207 278.544 105.49C279.033 104.773 279.7 104.141 280.546 103.593C281.285 103.115 282.062 102.784 282.877 102.6C283.7 102.429 284.508 102.411 285.3 102.546C286.115 102.686 286.879 102.982 287.592 103.436C288.313 103.903 288.939 104.546 289.469 105.365C289.965 106.131 290.258 106.922 290.349 107.74C290.462 108.563 290.403 109.354 290.171 110.114C289.961 110.879 289.605 111.596 289.103 112.263C288.602 112.931 287.988 113.5 287.263 113.969C287.115 114.065 286.949 114.163 286.766 114.262C286.605 114.366 286.455 114.444 286.317 114.496L281.335 106.799C280.728 107.364 280.442 108.026 280.476 108.785C280.524 109.536 280.804 110.307 281.317 111.1ZM286.756 110.581C287.255 110.144 287.497 109.605 287.484 108.966C287.483 108.318 287.279 107.679 286.87 107.047C286.462 106.416 285.949 105.948 285.332 105.642C284.728 105.327 284.116 105.295 283.496 105.544L286.756 110.581Z" fill="#494454"/>
<path d="M289.713 128.218C289.005 128.16 288.272 127.854 287.515 127.302C286.757 126.749 286.133 125.979 285.641 124.991C285.256 124.217 285.032 123.408 284.969 122.564C284.913 121.734 285.008 120.918 285.252 120.117C285.504 119.33 285.91 118.601 286.469 117.93C287.029 117.258 287.738 116.709 288.598 116.281C289.457 115.853 290.323 115.618 291.196 115.577C292.069 115.536 292.896 115.652 293.675 115.925C294.462 116.213 295.162 116.633 295.776 117.185C296.412 117.744 296.923 118.41 297.308 119.184C297.799 120.172 298.03 121.121 298 122.029C297.977 122.952 297.779 123.703 297.406 124.282L294.743 124.642C294.944 124.185 295.049 123.623 295.057 122.958C295.066 122.292 294.899 121.616 294.557 120.928C294.058 119.926 293.386 119.259 292.542 118.928C291.713 118.591 290.861 118.639 289.988 119.074C289.114 119.509 288.555 120.163 288.31 121.035C288.065 121.908 288.192 122.845 288.691 123.848C289.04 124.55 289.49 125.094 290.04 125.482C290.591 125.869 291.113 126.128 291.606 126.257L289.713 128.218Z" fill="#494454"/>
<path d="M301.087 137.468L299.73 133.901L291.206 137.143L290.122 134.294L298.646 131.052L297.29 127.486L300.318 126.334L304.115 136.316L301.087 137.468Z" fill="#494454"/>
<path d="M297.241 147.307C297.439 148.049 297.76 148.725 298.205 149.335C298.664 149.941 299.164 150.354 299.703 150.575L297.672 152.085C296.954 151.879 296.278 151.422 295.642 150.714C295.01 150.022 294.545 149.119 294.248 148.006C294.005 147.094 293.925 146.204 294.008 145.338C294.096 144.486 294.334 143.702 294.722 142.986C295.111 142.27 295.648 141.646 296.334 141.115C297.021 140.584 297.851 140.189 298.825 139.929C299.675 139.702 300.516 139.627 301.348 139.703C302.184 139.795 302.958 140.027 303.67 140.4C304.402 140.784 305.037 141.302 305.575 141.954C306.117 142.62 306.514 143.425 306.766 144.368C307.001 145.249 307.035 146.093 306.869 146.899C306.723 147.716 306.422 148.451 305.967 149.102C305.531 149.765 304.971 150.336 304.288 150.817C303.605 151.297 302.846 151.649 302.011 151.871C301.841 151.917 301.653 151.959 301.448 151.997C301.263 152.046 301.096 152.074 300.949 152.08L298.586 143.222C297.834 143.572 297.358 144.113 297.156 144.846C296.969 145.574 296.998 146.395 297.241 147.307ZM302.575 148.492C303.184 148.23 303.581 147.793 303.765 147.181C303.965 146.564 303.968 145.893 303.774 145.166C303.58 144.44 303.237 143.836 302.744 143.355C302.267 142.869 301.695 142.649 301.028 142.695L302.575 148.492Z" fill="#494454"/>
<path d="M300.415 171.96C299.773 171.655 299.195 171.11 298.681 170.326C298.168 169.542 297.855 168.601 297.744 167.502C297.657 166.643 297.733 165.807 297.972 164.994C298.213 164.198 298.59 163.469 299.102 162.806C299.615 162.159 300.252 161.62 301.013 161.189C301.773 160.758 302.631 160.494 303.586 160.398C304.541 160.301 305.434 160.387 306.266 160.657C307.097 160.927 307.829 161.327 308.462 161.858C309.096 162.405 309.603 163.045 309.983 163.778C310.38 164.526 310.623 165.33 310.71 166.189C310.821 167.288 310.702 168.257 310.353 169.096C310.005 169.951 309.555 170.584 309.001 170.994L306.383 170.391C306.733 170.034 307.029 169.545 307.272 168.926C307.515 168.306 307.597 167.614 307.52 166.85C307.407 165.736 307.014 164.875 306.342 164.268C305.685 163.659 304.871 163.403 303.9 163.502C302.929 163.6 302.175 164.014 301.638 164.744C301.101 165.474 300.888 166.396 301.001 167.51C301.08 168.29 301.309 168.959 301.687 169.515C302.065 170.072 302.462 170.498 302.878 170.794L300.415 171.96Z" fill="#494454"/>
<path d="M310.939 184.518L306.555 184.246L306.22 189.66L310.603 189.932L310.415 192.974L298.078 192.21L298.267 189.167L302.986 189.46L303.321 184.046L298.602 183.754L298.791 180.712L311.127 181.476L310.939 184.518Z" fill="#494454"/>
<path d="M300.767 203.516C301.01 203.43 301.249 203.188 301.482 202.791C301.731 202.396 301.905 201.924 302.004 201.372C302.145 200.585 302.124 199.972 301.943 199.533C301.761 199.094 301.466 198.838 301.056 198.765C300.647 198.692 300.281 198.829 299.958 199.178C299.649 199.545 299.426 200.107 299.291 200.863C299.193 201.414 299.2 201.919 299.313 202.378C299.442 202.84 299.635 203.167 299.893 203.36L300.767 203.516ZM308.003 197.545C308.31 197.827 308.568 198.158 308.777 198.536C308.983 198.931 309.136 199.348 309.236 199.789C309.351 200.232 309.416 200.69 309.429 201.164C309.439 201.653 309.401 202.134 309.317 202.607C309.173 203.41 308.933 204.115 308.597 204.721C308.259 205.343 307.842 205.854 307.348 206.253C306.854 206.653 306.278 206.923 305.618 207.066C304.972 207.226 304.263 207.238 303.491 207.1L295.86 205.735L296.38 202.829L297.443 203.019C297.04 202.638 296.776 202.112 296.653 201.439C296.529 200.767 296.526 200.1 296.645 199.439C296.76 198.793 296.96 198.219 297.245 197.718C297.53 197.216 297.874 196.79 298.278 196.44C298.695 196.108 299.167 195.875 299.695 195.742C300.238 195.612 300.817 195.601 301.432 195.711C302.077 195.827 302.622 196.054 303.065 196.393C303.521 196.751 303.875 197.18 304.127 197.68C304.395 198.183 304.564 198.734 304.636 199.332C304.705 199.946 304.685 200.56 304.575 201.174C304.434 201.961 304.226 202.582 303.949 203.037C303.686 203.51 303.436 203.815 303.201 203.951L303.531 204.01C304.24 204.137 304.849 204.002 305.359 203.606C305.866 203.225 306.2 202.586 306.36 201.688C306.498 200.916 306.474 200.189 306.287 199.505C306.098 198.837 305.807 198.282 305.415 197.838L308.003 197.545Z" fill="#494454"/>
<path d="M303.72 223.278L302.835 226.094L290.461 224.246L291.366 221.361L297.918 222.286L292.553 217.583L293.286 215.247L300.377 214.455L294.48 211.446L295.407 208.492L306.624 214.027L305.805 216.637L297.229 217.592L303.72 223.278Z" fill="#494454"/>
<path d="M299.438 234.268L292.724 231.117L297.062 239.33L295.767 242.089L284.578 236.838L285.852 234.122L292.566 237.273L288.228 229.06L289.523 226.301L300.712 231.552L299.438 234.268Z" fill="#494454"/>
</svg>
