<svg width="32" height="32" viewBox="0 0 32 32" fill="none" xmlns="http://www.w3.org/2000/svg">
<path d="M32 16C32 7.16344 24.8366 0 16 0C7.16344 0 0 7.16344 0 16C0 24.8366 7.16344 32 16 32C24.8366 32 32 24.8366 32 16Z" fill="white"/>
<path d="M8 15.6667C8 12.0526 8 10.2455 9.12276 9.12276C10.2455 8 12.0526 8 15.6667 8H16.3333C19.9474 8 21.7545 8 22.8772 9.12276C24 10.2455 24 12.0526 24 15.6667V16.3333C24 19.9474 24 21.7545 22.8772 22.8772C21.7545 24 19.9474 24 16.3333 24H15.6667C12.0526 24 10.2455 24 9.12276 22.8772C8 21.7545 8 19.9474 8 16.3333L8 15.6667Z" fill="#2787F5"/>
<path fill-rule="evenodd" clip-rule="evenodd" d="M11.9672 12.7998H10.8003C10.4669 12.7998 10.4002 12.9567 10.4002 13.1297C10.4002 13.4388 10.7958 14.9714 12.2422 16.9984C13.2065 18.3827 14.5651 19.1331 15.8014 19.1331C16.5432 19.1331 16.635 18.9665 16.635 18.6794V17.6331C16.635 17.2998 16.7052 17.2333 16.9401 17.2333C17.1132 17.2333 17.4099 17.3198 18.1022 17.9872C18.8935 18.7783 19.0239 19.1331 19.4689 19.1331H20.6359C20.9693 19.1331 21.136 18.9665 21.0398 18.6376C20.9346 18.3098 20.5568 17.8341 20.0556 17.2704C19.7836 16.949 19.3756 16.6029 19.252 16.4299C19.0789 16.2074 19.1283 16.1085 19.252 15.9108C19.252 15.9108 20.6737 13.9084 20.8221 13.2287C20.8962 12.9814 20.8221 12.7998 20.4692 12.7998H19.3022C19.0055 12.7998 18.8687 12.9567 18.7945 13.1297C18.7945 13.1297 18.2011 14.5759 17.3605 15.5152C17.0885 15.7871 16.9648 15.8737 16.8165 15.8737C16.7423 15.8737 16.6349 15.7871 16.6349 15.54V13.2287C16.6349 12.932 16.5488 12.7998 16.3015 12.7998H14.4678C14.2824 12.7998 14.1708 12.9375 14.1708 13.068C14.1708 13.3492 14.5912 13.414 14.6345 14.2051V15.9231C14.6345 16.2998 14.5664 16.3681 14.4181 16.3681C14.0225 16.3681 13.0602 14.9155 12.4895 13.2534C12.3776 12.9303 12.2654 12.7998 11.9672 12.7998Z" fill="white"/>
</svg>
